<svg width="9" height="10" viewBox="0 0 9 10" fill="none" xmlns="http://www.w3.org/2000/svg">
<path d="M0.642857 9.0625C0.642857 9.31114 0.744451 9.5496 0.92529 9.72541C1.10613 9.90123 1.3514 10 1.60714 10H7.39286C7.6486 10 7.89387 9.90123 8.07471 9.72541C8.25555 9.5496 8.35714 9.31114 8.35714 9.0625V2.5H0.642857V9.0625ZM6.10714 4.0625C6.10714 3.97962 6.14101 3.90014 6.20129 3.84153C6.26157 3.78293 6.34332 3.75 6.42857 3.75C6.51382 3.75 6.59558 3.78293 6.65586 3.84153C6.71614 3.90014 6.75 3.97962 6.75 4.0625V8.4375C6.75 8.52038 6.71614 8.59987 6.65586 8.65847C6.59558 8.71708 6.51382 8.75 6.42857 8.75C6.34332 8.75 6.26157 8.71708 6.20129 8.65847C6.14101 8.59987 6.10714 8.52038 6.10714 8.4375V4.0625ZM4.17857 4.0625C4.17857 3.97962 4.21244 3.90014 4.27272 3.84153C4.333 3.78293 4.41475 3.75 4.5 3.75C4.58525 3.75 4.667 3.78293 4.72728 3.84153C4.78756 3.90014 4.82143 3.97962 4.82143 4.0625V8.4375C4.82143 8.52038 4.78756 8.59987 4.72728 8.65847C4.667 8.71708 4.58525 8.75 4.5 8.75C4.41475 8.75 4.333 8.71708 4.27272 8.65847C4.21244 8.59987 4.17857 8.52038 4.17857 8.4375V4.0625ZM2.25 4.0625C2.25 3.97962 2.28386 3.90014 2.34414 3.84153C2.40442 3.78293 2.48618 3.75 2.57143 3.75C2.65668 3.75 2.73843 3.78293 2.79871 3.84153C2.85899 3.90014 2.89286 3.97962 2.89286 4.0625V8.4375C2.89286 8.52038 2.85899 8.59987 2.79871 8.65847C2.73843 8.71708 2.65668 8.75 2.57143 8.75C2.48618 8.75 2.40442 8.71708 2.34414 8.65847C2.28386 8.59987 2.25 8.52038 2.25 8.4375V4.0625ZM8.67857 0.625003H6.26786L6.07902 0.259769C6.03902 0.181686 5.9774 0.116004 5.90109 0.0701125C5.82479 0.024221 5.73682 -5.91399e-05 5.6471 3.42436e-06H3.35089C3.26137 -0.000331156 3.17356 0.0238585 3.09753 0.069801C3.02149 0.115743 2.96031 0.18158 2.92098 0.259769L2.73214 0.625003H0.321429C0.23618 0.625003 0.154424 0.657927 0.0941443 0.716532C0.0338647 0.775137 0 0.854623 0 0.937503L0 1.5625C0 1.64538 0.0338647 1.72487 0.0941443 1.78347C0.154424 1.84208 0.23618 1.875 0.321429 1.875H8.67857C8.76382 1.875 8.84558 1.84208 8.90586 1.78347C8.96614 1.72487 9 1.64538 9 1.5625V0.937503C9 0.854623 8.96614 0.775137 8.90586 0.716532C8.84558 0.657927 8.76382 0.625003 8.67857 0.625003Z" fill="white"/>
</svg>
