<svg width="17" height="18" viewBox="0 0 17 18" fill="none" xmlns="http://www.w3.org/2000/svg">
<path d="M13.3571 11.25C12.4993 11.25 11.7108 11.5249 11.0883 11.9846L7.19935 9.73269C7.31452 9.25005 7.31452 8.74992 7.19935 8.26727L11.0883 6.01538C11.7108 6.47511 12.4993 6.75 13.3571 6.75C15.369 6.75 17 5.23895 17 3.375C17 1.51105 15.369 0 13.3571 0C11.3453 0 9.71429 1.51105 9.71429 3.375C9.71429 3.62665 9.74426 3.87176 9.80065 4.10769L5.91167 6.35959C5.28924 5.89989 4.50075 5.625 3.64286 5.625C1.63098 5.625 0 7.13605 0 9C0 10.8639 1.63098 12.375 3.64286 12.375C4.50075 12.375 5.28924 12.1001 5.91167 11.6404L9.80065 13.8923C9.74317 14.1329 9.71421 14.3786 9.71429 14.625C9.71429 16.4889 11.3453 18 13.3571 18C15.369 18 17 16.4889 17 14.625C17 12.7611 15.369 11.25 13.3571 11.25Z" fill="white"/>
</svg>
