<svg width="24" height="16" viewBox="0 0 24 16" fill="none" xmlns="http://www.w3.org/2000/svg">
<path d="M20.16 6.95C20.3137 6.56786 20.4 6.15 20.4 5.71429C20.4 3.82143 18.7875 2.28571 16.8 2.28571C16.0613 2.28571 15.3713 2.5 14.8013 2.86429C13.7625 1.15 11.8238 0 9.6 0C6.285 0 3.6 2.55714 3.6 5.71429C3.6 5.81071 3.60375 5.90714 3.6075 6.00357C1.5075 6.70714 0 8.61429 0 10.8571C0 13.6964 2.41875 16 5.4 16H19.2C21.8513 16 24 13.9536 24 11.4286C24 9.21786 22.35 7.37143 20.16 6.95ZM14.7525 9.14286H12.3V13.1429C12.3 13.4571 12.03 13.7143 11.7 13.7143H9.9C9.57 13.7143 9.3 13.4571 9.3 13.1429V9.14286H6.8475C6.31125 9.14286 6.045 8.52857 6.42375 8.16786L10.3763 4.40357C10.6088 4.18214 10.9913 4.18214 11.2238 4.40357L15.1763 8.16786C15.555 8.52857 15.285 9.14286 14.7525 9.14286Z" fill="white"/>
</svg>
