<svg width="14" height="16" viewBox="0 0 14 16" fill="none" xmlns="http://www.w3.org/2000/svg">
<path d="M12.7855 8.86194C11.6101 7.37575 9.89086 6.84591 8.57635 6.66851C8.70649 5.34848 8.58688 3.55347 7.4114 2.06728C5.75577 -0.0259765 3.01736 -0.630516 1.30933 0.720424C-0.398702 2.07136 -0.441161 4.87539 1.21447 6.96865C2.38995 8.45484 4.10914 8.98468 5.42366 9.16208C5.29351 10.4821 5.41312 12.2771 6.5886 13.7633C8.24423 15.8566 10.9826 16.4611 12.6907 15.1102C14.3987 13.7592 14.4412 10.9552 12.7855 8.86194ZM3.07355 5.49824C2.35866 4.59438 2.33293 3.41957 3.01653 2.87888C3.70013 2.3382 4.83743 2.63384 5.55232 3.53769C6.23165 4.39658 6.15853 5.74095 5.98457 6.63146C5.08731 6.59553 3.75109 6.35488 3.07355 5.49824ZM8.44768 12.2929C7.76835 11.434 7.84147 10.0896 8.01543 9.19913C8.9127 9.23506 10.2489 9.47571 10.9265 10.3323C11.6413 11.2362 11.6671 12.411 10.9835 12.9517C10.2999 13.4924 9.16257 13.1968 8.44768 12.2929Z" fill="white"/>
</svg>
