<svg width="24" height="18" viewBox="0 0 24 18" fill="none" xmlns="http://www.w3.org/2000/svg">
<path d="M22 0H2C0.895833 0 0 0.863839 0 1.92857V16.0714C0 17.1362 0.895833 18 2 18H22C23.1042 18 24 17.1362 24 16.0714V1.92857C24 0.863839 23.1042 0 22 0ZM7.33333 3.85714C8.80417 3.85714 10 5.01027 10 6.42857C10 7.84687 8.80417 9 7.33333 9C5.8625 9 4.66667 7.84687 4.66667 6.42857C4.66667 5.01027 5.8625 3.85714 7.33333 3.85714ZM12 13.3714C12 13.7973 11.5833 14.1429 11.0667 14.1429H3.6C3.08333 14.1429 2.66667 13.7973 2.66667 13.3714V12.6C2.66667 11.3223 3.92083 10.2857 5.46667 10.2857H5.675C6.1875 10.4906 6.74583 10.6071 7.33333 10.6071C7.92083 10.6071 8.48333 10.4906 8.99167 10.2857H9.2C10.7458 10.2857 12 11.3223 12 12.6V13.3714ZM21.3333 11.25C21.3333 11.4268 21.1833 11.5714 21 11.5714H15C14.8167 11.5714 14.6667 11.4268 14.6667 11.25V10.6071C14.6667 10.4304 14.8167 10.2857 15 10.2857H21C21.1833 10.2857 21.3333 10.4304 21.3333 10.6071V11.25ZM21.3333 8.67857C21.3333 8.85536 21.1833 9 21 9H15C14.8167 9 14.6667 8.85536 14.6667 8.67857V8.03571C14.6667 7.85893 14.8167 7.71429 15 7.71429H21C21.1833 7.71429 21.3333 7.85893 21.3333 8.03571V8.67857ZM21.3333 6.10714C21.3333 6.28393 21.1833 6.42857 21 6.42857H15C14.8167 6.42857 14.6667 6.28393 14.6667 6.10714V5.46429C14.6667 5.2875 14.8167 5.14286 15 5.14286H21C21.1833 5.14286 21.3333 5.2875 21.3333 5.46429V6.10714Z" fill="white"/>
</svg>
