<svg width="11" height="11" viewBox="0 0 11 11" fill="none" xmlns="http://www.w3.org/2000/svg">
<path d="M5.53388 0C2.49025 0 0 2.49025 0 5.53388C0 7.81661 1.38347 9.75347 3.32033 10.5836C3.32033 10.1685 3.32033 9.75347 3.3895 9.33843C3.52785 8.85421 4.08123 6.29479 4.08123 6.29479C4.08123 6.29479 3.87372 5.94893 3.87372 5.39554C3.87372 4.56545 4.35794 3.94289 4.91133 3.94289C5.39554 3.94289 5.67223 4.28876 5.67223 4.77297C5.67223 5.25719 5.32636 6.0181 5.18802 6.70983C5.04967 7.26322 5.46471 7.74744 6.08727 7.74744C7.12488 7.74744 7.81661 6.43314 7.81661 4.77297C7.81661 3.52785 6.98653 2.62859 5.53388 2.62859C3.87372 2.62859 2.83612 3.87372 2.83612 5.25719C2.83612 5.7414 2.97447 6.08727 3.18199 6.36397C3.25116 6.50231 3.32033 6.50231 3.25115 6.64066C3.25115 6.70983 3.18198 6.98653 3.11281 7.0557C3.04364 7.19405 2.97447 7.26322 2.83612 7.19405C2.07521 6.84818 1.72934 6.0181 1.72934 5.04967C1.72934 3.45868 3.04363 1.59099 5.67223 1.59099C7.81661 1.59099 9.20007 3.11281 9.20007 4.77297C9.20007 6.91735 8.02413 8.57752 6.22562 8.57752C5.60306 8.57752 5.04967 8.23165 4.84215 7.88578C4.84215 7.88578 4.49628 9.13091 4.4271 9.4076C4.28876 9.82264 4.08124 10.2377 3.87372 10.5836C4.35794 10.7219 4.91132 10.7911 5.46471 10.7911C8.50834 10.7911 10.9986 8.30083 10.9986 5.25719C11.0678 2.49025 8.57752 0 5.53388 0Z" fill="white"/>
</svg>
