<svg width="24" height="17" viewBox="0 0 24 17" fill="none" xmlns="http://www.w3.org/2000/svg">
<path d="M22.5929 0.00206071C20.3095 0.120074 15.7711 0.549625 12.9694 2.11149C12.7761 2.21926 12.6665 2.41089 12.6665 2.61124V16.4187C12.6665 16.857 13.1927 17.134 13.6365 16.9306C16.519 15.6094 20.6879 15.2489 22.7491 15.1502C23.4529 15.1164 24 14.6026 24 13.9868V1.16701C24.0004 0.494982 23.3604 -0.0374034 22.5929 0.00206071ZM11.0306 2.11149C8.22931 0.549625 3.6909 0.120453 1.40752 0.00206071C0.640011 -0.0374034 0 0.494982 0 1.16701V13.9871C0 14.6034 0.547093 15.1172 1.25086 15.1506C3.31297 15.2492 7.48388 15.6101 10.3664 16.9322C10.8089 17.1352 11.3335 16.8585 11.3335 16.4214V2.60441C11.3335 2.40368 11.2244 2.21964 11.0306 2.11149Z" fill="white"/>
</svg>
