<svg width="26" height="18" viewBox="0 0 26 18" fill="none" xmlns="http://www.w3.org/2000/svg">
<path d="M26 9C26 13.9717 20.1792 18 13 18C5.8208 18 0 13.9717 0 9C0 4.03124 5.8208 0 13 0C20.1792 0 26 4.03124 26 9ZM13.3489 2.97581C10.4922 2.97581 8.67016 3.80892 7.23943 5.2896C7.05407 5.48144 7.11608 5.74015 7.38175 5.87961L9.20065 6.83441C9.47349 6.97765 9.86223 6.94357 10.0742 6.7574C11.0106 5.93514 11.6527 5.45832 13.078 5.45832C14.1489 5.45832 15.4735 5.93546 15.4735 6.65438C15.4735 7.19786 14.8254 7.47697 13.768 7.88737C12.5349 8.36594 10.9032 8.96157 10.9032 10.4516V10.5968C10.9032 10.8373 11.1849 11.0323 11.5323 11.0323H14.4677C14.8151 11.0323 15.0968 10.8373 15.0968 10.5968V10.5484C15.0968 9.5155 19.4573 9.4725 19.4573 6.67742C19.4573 4.57251 16.3035 2.97581 13.3489 2.97581ZM13 11.9758C11.6704 11.9758 10.5887 12.7247 10.5887 13.6452C10.5887 14.5656 11.6704 15.3145 13 15.3145C14.3296 15.3145 15.4113 14.5656 15.4113 13.6452C15.4113 12.7247 14.3296 11.9758 13 11.9758Z" fill="white"/>
</svg>
