<svg width="19" height="19" viewBox="0 0 19 19" fill="none" xmlns="http://www.w3.org/2000/svg">
<path fill-rule="evenodd" clip-rule="evenodd" d="M12.8927 1.58334H15.4788C16.5487 1.58334 17.4167 2.45885 17.4167 3.5389V6.14659C17.4167 7.22583 16.5487 8.10215 15.4788 8.10215H12.8927C11.8219 8.10215 10.954 7.22583 10.954 6.14659V3.5389C10.954 2.45885 11.8219 1.58334 12.8927 1.58334Z" stroke="#5A0F2E" stroke-width="1.5" stroke-linecap="round" stroke-linejoin="round"/>
<path fill-rule="evenodd" clip-rule="evenodd" d="M3.5221 1.58334H6.10735C7.17811 1.58334 8.04607 2.45885 8.04607 3.5389V6.14659C8.04607 7.22583 7.17811 8.10215 6.10735 8.10215H3.5221C2.45134 8.10215 1.58337 7.22583 1.58337 6.14659V3.5389C1.58337 2.45885 2.45134 1.58334 3.5221 1.58334Z" stroke="#5A0F2E" stroke-width="1.5" stroke-linecap="round" stroke-linejoin="round"/>
<path fill-rule="evenodd" clip-rule="evenodd" d="M3.5221 10.8979H6.10735C7.17811 10.8979 8.04607 11.7734 8.04607 12.8542V15.4611C8.04607 16.5412 7.17811 17.4167 6.10735 17.4167H3.5221C2.45134 17.4167 1.58337 16.5412 1.58337 15.4611V12.8542C1.58337 11.7734 2.45134 10.8979 3.5221 10.8979Z" stroke="#5A0F2E" stroke-width="1.5" stroke-linecap="round" stroke-linejoin="round"/>
<path fill-rule="evenodd" clip-rule="evenodd" d="M12.8927 10.8979H15.4788C16.5487 10.8979 17.4167 11.7734 17.4167 12.8542V15.4611C17.4167 16.5412 16.5487 17.4167 15.4788 17.4167H12.8927C11.8219 17.4167 10.954 16.5412 10.954 15.4611V12.8542C10.954 11.7734 11.8219 10.8979 12.8927 10.8979Z" stroke="#5A0F2E" stroke-width="1.5" stroke-linecap="round" stroke-linejoin="round"/>
</svg>
