<svg width="11" height="11" viewBox="0 0 11 11" fill="none" xmlns="http://www.w3.org/2000/svg">
<path d="M2.475 11H0.137498V3.64375H2.475V11ZM1.30625 2.6125C0.550001 2.6125 0 2.0625 0 1.30625C0 0.55 0.618751 0 1.30625 0C2.0625 0 2.6125 0.55 2.6125 1.30625C2.6125 2.0625 2.0625 2.6125 1.30625 2.6125ZM11 11H8.6625V7.0125C8.6625 5.84375 8.18125 5.5 7.49375 5.5C6.80625 5.5 6.11875 6.05 6.11875 7.08125V11H3.78125V3.64375H5.98125V4.675C6.1875 4.19375 7.0125 3.4375 8.18125 3.4375C9.4875 3.4375 10.8625 4.19375 10.8625 6.4625V11H11Z" fill="white"/>
</svg>
