<svg width="21" height="21" viewBox="0 0 21 21" fill="none" xmlns="http://www.w3.org/2000/svg">
<path d="M14.175 13.55C14.0092 13.55 13.8502 13.6159 13.733 13.7331C13.6158 13.8503 13.55 14.0093 13.55 14.175C13.55 14.3408 13.6158 14.4997 13.733 14.617C13.8502 14.7342 14.0092 14.8 14.175 14.8H16.275C16.4407 14.8 16.5997 14.7342 16.7169 14.617C16.8341 14.4997 16.9 14.3408 16.9 14.175C16.9 14.0093 16.8341 13.8503 16.7169 13.7331C16.5997 13.6159 16.4407 13.55 16.275 13.55H14.175ZM2.87499 4.97503C2.31473 5.5353 1.99998 6.29518 1.99998 7.08751V13.9125C1.99998 14.7048 2.31473 15.4647 2.87499 16.025C3.43526 16.5853 4.19514 16.9 4.98748 16.9H16.0125C16.8048 16.9 17.5647 16.5853 18.125 16.025C18.6852 15.4647 19 14.7048 19 13.9125V7.08751C19 6.29518 18.6852 5.5353 18.125 4.97503C17.5647 4.41477 16.8048 4.10001 16.0125 4.10001H4.98748C4.19514 4.10001 3.43526 4.41477 2.87499 4.97503ZM3.75888 5.85891C4.08472 5.53307 4.52666 5.35001 4.98748 5.35001H16.0125C16.4733 5.35001 16.9152 5.53307 17.2411 5.85891C17.5669 6.18476 17.75 6.6267 17.75 7.08751V8.30001H3.24998V7.08751C3.24998 6.6267 3.43303 6.18476 3.75888 5.85891ZM3.24998 9.55001H17.75V13.9125C17.75 14.3733 17.5669 14.8153 17.2411 15.1411C16.9152 15.467 16.4733 15.65 16.0125 15.65H4.98748C4.0284 15.65 3.24998 14.8716 3.24998 13.9125V9.55001Z" fill="#5A0F2E" stroke="#5A0F2E" stroke-width="0.2"/>
</svg>
